<?xml version="1.0" encoding="utf-8"?>
<!-- Generator: Adobe Illustrator 27.5.0, SVG Export Plug-In . SVG Version: 6.00 Build 0)  -->
<svg version="1.1" xmlns="http://www.w3.org/2000/svg" xmlns:xlink="http://www.w3.org/1999/xlink"
	x="0px" y="0px"
	viewBox="0 0 750 500" style="enable-background:new 0 0 750 500;" xml:space="preserve">
<g id="BACKGROUND">
	<rect fill="transparent" width="750" height="500"/>
</g>
<g id="OBJECTS">
	<g>
		<defs>
			<rect id="SVGID_1_" width="750" height="500"/>
		</defs>
		<clipPath id="SVGID_00000093144034188581413730000003334803302951271308_">
			<use xlink:href="#SVGID_1_"  style="overflow:visible;"/>
		</clipPath>
		<g style="clip-path:url(#SVGID_00000093144034188581413730000003334803302951271308_);">
			<path stroke="currentColor" style="fill:none;stroke-width:3;stroke-miterlimit:10;" d="M356.827-9.97
				c-11.146-3.703-19.616,4.668-28.438,9.638c-8.281,4.665-16.958,6.582-20.665,16.68c-1.507,4.105-1.856,8.665-4.092,12.423
				c-1.65,2.773-4.197,4.878-6.693,6.924c-6.137,5.031-12.274,10.062-18.411,15.094c-3.993,3.274-8.081,6.659-10.585,11.175
				c-2.504,4.516-3.087,10.488-0.056,14.669c5.285,7.29,16.629,4.784,25.131,7.749c11.087,3.867,16.523,16.923,27.112,21.998
				c-0.718,5.663-0.738,12.775,4.305,15.451c4.475,2.374,9.765-0.486,14.443-2.431c5.429-2.257,11.698-3.257,17.166-1.096
				c5.468,2.161,9.642,8.16,8.31,13.887c-1.066,4.581-5.297,8.874-3.617,13.267c0.736,1.925,2.478,3.267,3.597,5
				c6.621,10.262-9.001,25.185,6.073,30.684c11.289,4.118,24.98,0.401,34.318,10.562c9.077,9.877,4.587,26.948-3.094,36.338
				c-7.777,9.508-22.017,3.98-29.002,15.055c-1.207,1.914-1.949,4.091-3.155,6.005c-4.23,6.718-13.024,8.809-18.944,14.097
				c-8.297,7.41-9.834,19.916-16.788,28.598c-4.498,5.616-10.943,9.246-16.643,13.635c-5.7,4.388-11.044,10.25-11.637,17.419
				c-0.484,5.849,2.499,11.303,2.311,17.063c-0.213,6.518-2.531,11.362-1.635,18.27c0.279,2.152,0.736,4.407,2.177,6.03
				c1.844,2.077,4.812,2.621,7.335,3.784c10.511,4.847,12.951,20.233,23.621,24.718c5.725,2.406,13.079,1.251,17.497,5.614
				c3.705,3.66,3.559,9.953,1.03,14.505c-2.53,4.552-6.903,7.74-11.213,10.665c-24.25,16.457-50.902,29.369-78.847,38.199
				c-1.814,0.573-3.8,1.126-5.575,0.442c-3.227-1.243-3.725-5.486-5.373-8.527c-2.803-5.175-9.456-7.009-15.329-6.637
				c-5.873,0.372-11.546,2.405-17.419,2.779c-20.349,1.293-35.959-16.478-51.811-29.303c-13.128-10.622-28.401-18.582-44.627-23.26
				c-3.342-0.964-6.99-1.962-9.068-4.752c-2.882-3.867-1.5-9.269-1.802-14.082c-0.506-8.051-6.692-15.419-14.533-17.311
				c-4.064-0.98-8.314-0.6-12.489-0.813c-17.782-0.909-37.05-12.221-51.994-2.54c-3.827,2.479-7.092,6.267-11.593,6.993
				c-3.418,0.551-6.822-0.811-10.016-2.146c-14.515-6.066-29.029-12.132-43.544-18.197"/>
			<path stroke="currentColor" style="fill:none;stroke-width:3;stroke-miterlimit:10;" d="M767.072,281.831
				c-10.079,0.69-18.887-6.197-28.341-9.761c-11.281-4.254-23.695-3.762-35.7-4.87c-29.783-2.747-58.354-15.601-88.258-15.01
				c-23.799,0.47-46.682,9.501-67.469,21.1c-10.126,5.65-20.083,12.099-27.362,21.126c-11.168,13.849-14.864,33.385-9.526,50.356
				c5.338,16.972,19.551,30.874,36.636,35.837c17.077,4.96,35.331,1.299,53.098,2.039c17.767,0.74,37.883,8.43,42.909,25.487
				c0.935,3.172,1.301,6.558,2.877,9.465c2.545,4.694,7.707,7.244,12.593,9.398c9.718,4.284,20.275,8.233,30.724,6.333
				c9.788-1.78,17.899-8.406,26.982-12.465c17.708-7.914,39.685-5.253,54.992,6.66"/>
			<path stroke="currentColor" style="fill:none;stroke-width:3;stroke-miterlimit:10;" d="M600.301-12.255
				c-8.84,9.376-18.243,18.485-24.549,29.722c-6.307,11.237-9.144,25.268-3.977,37.073c5.166,11.802,17.952,21.615,15.732,34.305
				c-0.716,4.096-3.015,7.794-3.659,11.901c-1.131,7.213,3.172,14.421,9.039,18.768c5.867,4.346,13.086,6.378,20.151,8.22
				c11.038,2.877,22.562,5.513,33.756,3.318c11.193-2.195,21.981-10.534,23.389-21.853c0.658-5.293-0.745-10.634-0.558-15.964
				c0.187-5.33,2.74-11.304,7.903-12.64c4.282-1.108,9.162,1.309,13.098-0.709c5.74-2.943,4.03-11.606,6.776-17.443
				c3.56-7.565,14.186-8.806,22.031-5.915c7.845,2.891,14.367,8.633,22.149,11.689c9.78,3.841,21.279,3.012,30.406-2.193"/>
			<path stroke="currentColor" style="fill:none;stroke-miterlimit:10;" d="M759.602,297.567c-17.06-7.499-35.85-9.899-54.34-12.218
				c-14.269-1.79-28.538-3.58-42.806-5.37c-17.124-2.148-34.422-4.299-51.594-2.573c-17.379,1.747-34.34,7.516-49.18,16.727
				c-8.961,5.562-17.371,12.632-22.157,22.031c-4.786,9.398-5.318,21.469,0.739,30.103c3.59,5.118,9.098,8.603,14.853,11.045
				c14.332,6.083,30.338,6.336,45.777,8.341c15.44,2.006,31.726,6.504,41.691,18.467c5.607,6.731,8.785,15.373,15.144,21.398
				c13.521,12.812,35.301,9.138,52.998,3.326c17.697-5.813,37.499-12.845,54.155-4.505"/>
			<path stroke="currentColor" style="fill:none;stroke-miterlimit:10;" d="M684.713,325.944c-4.187,0.154-8.526,0.818-11.983,3.186
				c-3.457,2.367-5.768,6.817-4.551,10.827c1.24,4.089,5.59,6.446,9.78,7.286c4.189,0.84,8.56,0.609,12.692,1.698
				c7.862,2.073,14.403,8.785,22.534,8.772c14.169-0.022,17.341-17.69,6.859-25.332
				C712.158,326.632,693.789,325.611,684.713,325.944z"/>
			<path stroke="currentColor" style="fill:none;stroke-miterlimit:10;" d="M704.948,310.667c-14.518-4.306-27.865-5.394-42.718-2.079
				c-14.882,3.322-29.895,18.436-20.8,34.265c6.35,11.052,18.993,13.996,30.133,17.951c8.855,3.144,15.182,9.14,23.437,13.055
				c12.095,5.736,27.016,3.791,38.553-2.384c9.553-5.113,21.574-17.9,18.055-29.776c-3.269-11.034-17.135-19.082-26.785-23.663
				C718.431,315.002,711.723,312.676,704.948,310.667z"/>
			<path stroke="currentColor" style="fill:none;stroke-miterlimit:10;" d="M762.44,320.138c-21.815-9.958-44.036-19.387-67.392-24.823
				c-23.356-5.436-48.062-6.743-71.209-0.475c-8.962,2.427-17.841,6.108-24.555,12.522c-6.714,6.414-10.947,15.96-9.186,25.077
				c1.751,9.066,9.001,16.212,17.101,20.645c8.1,4.433,17.173,6.696,25.853,9.847c8.68,3.151,17.352,7.481,22.928,14.842
				c2.065,2.726,3.655,5.807,5.913,8.375c6.032,6.857,15.996,9.014,25.09,8.169c9.094-0.844,17.724-4.226,26.495-6.772
				c17.478-5.073,35.901-6.866,54.029-5.26"/>
			<path stroke="currentColor" style="fill:none;stroke-miterlimit:10;" d="M606.772-6.116c-8.858,6.03-16.609,14.118-20.608,24.06
				c-4,9.941-3.825,21.864,1.972,30.876c3.331,5.179,8.308,9.21,11.214,14.639c3.692,6.896,3.592,15.144,3.005,22.944
				c-0.342,4.541-0.766,9.361,1.307,13.415c1.992,3.895,5.945,6.366,9.882,8.271c5.655,2.736,11.903,4.738,18.148,4.062
				c7.38-0.799,14.209-5.572,17.496-12.227c2.48-5.022,2.968-10.755,4.345-16.185c1.376-5.429,4.074-11.051,9.145-13.429
				c3.073-1.441,6.649-1.502,9.732-2.92c10.117-4.651,9.564-20.222,18.294-27.134c5.888-4.662,14.457-4.029,21.487-1.388
				c7.03,2.641,13.344,6.996,20.472,9.358c11.665,3.865,25.12,1.841,35.131-5.286"/>
			<path stroke="currentColor" style="fill:none;stroke-miterlimit:10;" d="M630.272-6.095c-5.679,2.966-10.917,6.773-15.492,11.257
				c-6.691,6.559-12.194,15.907-9.732,24.947c1.963,7.206,8.536,12.429,10.627,19.599c1.117,3.829,0.861,7.918,1.547,11.847
				c0.685,3.929,2.725,8.069,6.5,9.355c1.52,0.518,3.19,0.512,4.753,0.144c7.641-1.8,10.796-10.785,16.552-16.123
				c4.876-4.523,11.646-6.356,17.127-10.124c8.211-5.644,12.969-15.402,14.226-25.286c1.256-9.884-0.652-19.925-3.598-29.443"/>
			<path stroke="currentColor" style="fill:none;stroke-miterlimit:10;" d="M690.242-6.475c-0.046,14.531,9.063,28.694,22.303,34.681
				c7.634,3.452,16.162,4.279,24.521,4.845c9.046,0.613,18.684,0.842,26.522-3.716"/>
			<path stroke="currentColor" style="fill:none;stroke-miterlimit:10;" d="M711.66-7.878c-0.331,5.847,4.003,10.996,8.901,14.206
				c6.796,4.454,15.013,6.426,23.137,6.6c8.124,0.174,16.197-1.368,24.042-3.488"/>
			<path stroke="currentColor" style="fill:none;stroke-miterlimit:10;" d="M644.435-5.8c0.075,5.314-4.479,9.365-7.046,14.018
				c-1.678,3.041-2.531,6.464-3.161,9.88c-0.866,4.694-0.951,10.422,2.91,13.228c2.601,1.89,6.303,1.704,9.153,0.215
				c2.849-1.489,4.971-4.073,6.697-6.785c6.799-10.682,8.413-24.505,4.258-36.466"/>
			<g>
				<path stroke="currentColor" style="fill:none;stroke-miterlimit:10;" d="M-13.617,107.091c3.765,5.515,9.174,9.685,14.724,13.397
					c18.264,12.216,39.406,20.566,61.329,22.045s44.606-4.243,62.048-17.607c8.22-6.298,15.24-14.195,24.135-19.497
					c14.12-8.416,31.252-9.383,47.413-12.387c16.162-3.004,33.45-9.491,41.074-24.054c3.354-6.405,4.561-13.95,9.004-19.653
					c6.309-8.097,17.575-10.58,25.021-17.646c6.962-6.606,9.785-16.388,15.161-24.339c6.277-9.284,16.249-15.994,27.214-18.31"/>
				<path stroke="currentColor" style="fill:none;stroke-miterlimit:10;" d="M-13.712,94.724c3.299,4.779,7.981,8.425,12.792,11.679
					c15.828,10.705,34.166,18.059,53.203,19.531c19.037,1.472,38.668-3.331,54.089-14.441c2.51-1.808,4.942-3.744,7.299-5.803
					c4.665-4.075,8.959-8.437,13.979-11.83c2.007-1.35,4.089-2.524,6.251-3.546c9.103-4.322,19.652-5.899,29.981-7.572
					c1.889-0.306,3.771-0.617,5.642-0.952c8.291-1.488,16.897-3.846,24.121-7.997c5.433-3.126,10.068-7.274,13.178-12.728
					c3.191-5.587,4.551-12.192,8.548-17.311c5.676-7.267,15.364-9.951,21.7-16.49c2.538-2.618,4.417-5.727,6.071-8.995
					c2.206-4.353,4.024-8.999,6.542-13.143c5.141-8.491,13.386-14.828,22.929-17.372"/>
				<path stroke="currentColor" style="fill:none;stroke-miterlimit:10;" d="M-13.806,82.356c2.834,4.043,6.789,7.166,10.859,9.96
					c13.392,9.194,28.926,15.551,45.077,17.016c16.15,1.465,32.752-2.403,46.129-11.276c2.263-1.501,4.498-3.078,6.606-4.88
					c4.176-3.568,7.675-7.635,11.814-10.891c1.647-1.295,3.367-2.439,5.178-3.447c7.635-4.288,17-5.99,26.153-7.48
					c1.674-0.272,3.344-0.542,5.004-0.826c7.366-1.262,14.996-3.134,21.497-6.607c4.875-2.612,9.085-6.14,12.027-10.789
					c3.028-4.768,4.54-10.434,8.092-14.968c5.043-6.437,13.153-9.323,18.379-15.333c2.093-2.404,3.627-5.208,4.945-8.142
					c1.758-3.901,3.155-8.05,5.119-11.796c4.006-7.698,10.524-13.663,18.644-16.433"/>
				<path stroke="currentColor" style="fill:none;stroke-miterlimit:10;" d="M-13.901,69.989c2.369,3.307,5.597,5.907,8.926,8.241
					c10.956,7.683,23.686,13.043,36.951,14.502c13.264,1.459,26.868-1.447,38.169-8.11c2.02-1.191,4.055-2.412,5.913-3.956
					c3.686-3.061,6.395-6.826,9.65-9.952c1.288-1.237,2.647-2.35,4.104-3.349c6.18-4.236,14.349-6.082,22.325-7.388
					c1.459-0.239,2.916-0.466,4.366-0.7c6.442-1.036,13.095-2.422,18.873-5.217c4.318-2.098,8.101-5.007,10.876-8.851
					c2.865-3.949,4.53-8.676,7.636-12.625c4.41-5.606,10.941-8.694,15.058-14.177c1.648-2.191,2.837-4.691,3.82-7.289
					c1.311-3.449,2.294-7.098,3.696-10.448c2.886-6.899,7.661-12.498,14.359-15.494"/>
				<path stroke="currentColor" style="fill:none;stroke-miterlimit:10;" d="M-13.996,57.621c1.904,2.57,4.405,4.647,6.994,6.523
					c8.52,6.172,18.446,10.535,28.825,11.988c10.378,1.452,21.031-0.443,30.21-4.945c1.785-0.875,3.611-1.746,5.22-3.032
					c3.197-2.554,5.116-6.013,7.486-9.013c0.931-1.178,1.926-2.265,3.03-3.25c4.715-4.203,11.697-6.173,18.497-7.296
					c1.243-0.205,2.488-0.391,3.728-0.574c5.517-0.811,11.195-1.711,16.248-3.826c3.76-1.584,7.117-3.873,9.725-6.913
					c2.702-3.131,4.52-6.918,7.18-10.282c3.777-4.776,8.73-8.065,11.737-13.021c1.203-1.978,2.047-4.172,2.694-6.436
					c0.863-2.997,1.427-6.15,2.273-9.1c1.752-6.108,4.799-11.332,10.074-14.555"/>
				<path stroke="currentColor" style="fill:none;stroke-miterlimit:10;" d="M-14.091,45.254c1.439,1.834,3.212,3.387,5.061,4.804
					c6.083,4.662,13.206,8.027,20.698,9.473c7.491,1.446,15.252,0.657,22.25-1.779c1.56-0.543,3.168-1.08,4.527-2.108
					c2.708-2.047,3.842-5.197,5.322-8.073c0.575-1.117,1.203-2.182,1.956-3.151c3.245-4.175,9.046-6.264,14.67-7.204
					c1.028-0.172,2.06-0.316,3.091-0.448c4.593-0.586,9.294-0.999,13.624-2.436c3.203-1.07,6.133-2.74,8.574-4.974
					c2.538-2.312,4.509-5.16,6.724-7.939c3.144-3.946,6.519-7.436,8.416-11.864c0.758-1.765,1.257-3.654,1.568-5.584
					c0.416-2.545,0.556-5.203,0.85-7.752c0.613-5.318,1.937-10.167,5.789-13.616"/>
				<path stroke="currentColor" style="fill:none;stroke-miterlimit:10;" d="M-14.186,32.887c7.38,8.322,18.945,12.73,29.992,11.431
					c1.342-0.158,2.724-0.414,3.834-1.184c3.069-2.13,2.579-6.749,4.04-10.187c1.764-4.152,6.394-6.356,10.842-7.112
					c4.447-0.756,9.039-0.438,13.453-1.367c10.892-2.292,19.4-12.942,19.229-24.071c-0.099-6.499-2.653-13.66,0.931-19.082"/>
			</g>
			<g>
				<path stroke="currentColor" style="fill:none;stroke-miterlimit:10;" d="M-32.036,306.914c9.601,12.251,20.844,25.466,36.301,27.296
					c12.65,1.498,24.918-5.177,37.654-5.444c12.236-0.256,23.794,5.384,35.906,7.138c16.909,2.447,34.35-2.936,48.523-12.476
					c24.316-16.367,39.622-45.334,39.443-74.645c-0.064-10.432-1.945-20.977,0.033-31.219c1.483-7.678,5.063-14.767,7.537-22.185
					c4.631-13.884,5.32-29.059,1.967-43.305c-0.933-3.965-2.251-7.999-5.016-10.99c-5.061-5.475-13.765-6.01-20.832-3.632
					c-7.067,2.378-13.05,7.101-19.346,11.094c-25.375,16.094-56.584,20.545-86.615,19.508c-9.323-0.322-18.743-1.157-27.56-4.202
					c-11.883-4.105-22.027-11.981-31.931-19.724c-4.272-3.34-9.594-4.588-14.921-3.572c-5.327,1.016-10.039,4.093-14.196,7.576
					c-16.183,13.562-25.866,34.559-25.675,55.672c0.078,8.669,1.725,17.249,3.757,25.677
					C-60.516,256.413-49.124,285.109-32.036,306.914z"/>
				<path stroke="currentColor" style="fill:none;stroke-miterlimit:10;" d="M25.389,179.848c-9.576-2.89-18.076-8.48-26.365-14.129
					c-3.552-2.421-7.88-3.298-12.219-2.461c-4.349,0.84-8.236,3.23-11.698,5.936c-13.605,10.569-22.186,26.908-22.663,43.974
					c-0.174,6.965,0.926,13.953,2.443,20.941c5.464,21.096,14.272,43.714,27.758,60.91c7.631,9.729,16.657,20.042,28.904,21.637
					c10.024,1.305,19.8-3.639,29.913-3.92c9.994-0.311,19.376,3.541,29.142,4.389c13.604,1.203,27.549-3.628,39.163-11.313
					c19.263-12.828,31.947-34.845,32.629-57.66c0.238-8.115-0.951-16.31,0.697-24.27c1.265-6.017,4.053-11.585,5.968-17.391
					c3.605-10.953,4.038-22.831,1.286-33.952c-0.766-3.094-1.831-6.235-3.993-8.589c-3.95-4.301-10.664-4.881-16.175-3.258
					c-5.5,1.631-10.209,5.037-15.17,7.913c-19.93,11.622-44.463,14.764-68.013,14.141C39.678,182.553,32.319,181.939,25.389,179.848
					z"/>
				<path stroke="currentColor" style="fill:none;stroke-miterlimit:10;" d="M34.818,195.845c-7.288-1.665-14.115-4.981-20.798-8.535
					c-2.828-1.504-6.166-2.008-9.517-1.349c-3.372,0.664-6.427,2.377-9.201,4.296c-11.002,7.613-18.55,19.254-19.651,32.276
					c-0.445,5.259,0.127,10.657,1.13,16.206c4.435,15.259,10.66,31.8,20.544,44.387c5.661,7.207,12.47,14.619,21.507,15.978
					c7.397,1.113,14.684-2.073,22.172-2.397c7.754-0.336,14.958,1.698,22.377,1.641c10.3-0.04,20.769-4.289,29.804-10.151
					c14.243-9.241,24.272-24.356,25.816-40.676c0.54-5.799,0.021-11.649,1.361-17.32c1.03-4.36,3.044-8.403,4.4-12.598
					c2.58-8.021,2.756-16.603,0.604-24.597c-0.598-2.223-1.412-4.472-2.97-6.189c-2.839-3.126-7.565-3.762-11.518-2.885
					c-3.935,0.873-7.374,2.96-10.993,4.731c-14.508,7.101-32.342,8.984-49.412,8.773C45.16,197.373,39.849,196.994,34.818,195.845z"
					/>
				<path stroke="currentColor" style="fill:none;stroke-miterlimit:10;" d="M44.248,211.842c-5.038-0.403-10.134-1.497-15.231-2.94
					c-2.095-0.593-4.452-0.718-6.816-0.238c-2.394,0.488-4.624,1.515-6.703,2.656c-8.427,4.626-14.873,11.598-16.639,20.578
					c-0.699,3.552-0.671,7.36-0.183,11.47c3.407,9.423,7.048,19.887,13.33,27.863c3.692,4.685,8.283,9.195,14.11,10.319
					c4.77,0.921,9.567-0.534,14.43-0.874c5.513-0.386,10.538-0.16,15.613-1.108c6.992-1.305,13.972-4.975,20.445-8.988
					c9.191-5.698,16.597-13.867,19.002-23.691c0.843-3.483,1.011-6.985,2.025-10.371c0.809-2.701,2.034-5.221,2.831-7.804
					c1.554-5.09,1.474-10.374-0.077-15.244c-0.43-1.353-0.992-2.708-1.946-3.788c-1.728-1.952-4.462-2.636-6.861-2.511
					c-2.367,0.123-4.533,0.891-6.816,1.55c-9.058,2.612-20.222,3.204-30.811,3.405C50.642,212.193,47.354,212.09,44.248,211.842z"/>
				<path stroke="currentColor" style="fill:none;stroke-miterlimit:10;" d="M20.572,247.998c2.379,3.587,3.436,7.973,6.116,11.34
					c3.132,3.936,8.425,6.032,13.403,5.309c7.694-1.118,13.089-7.994,19.934-11.682c4.106-2.212,8.922-3.378,12.188-6.707
					c12.87-13.119-6.859-23.255-18.535-18.42C42.27,232.563,20.74,230.749,20.572,247.998z"/>
			</g>
			<g>
				<path stroke="currentColor" style="fill:none;stroke-miterlimit:10;" d="M293.326,113.355c5.213,6.055,8.252,13.678,13.013,20.094
					c4.761,6.416,12.385,11.847,20.225,10.308c2.177-0.427,4.322-1.381,6.524-1.108c3.78,0.468,6.181,4.306,7.306,7.945
					c2.785,9.008,1.165,18.714,1.734,28.125c0.569,9.411,4.536,19.935,13.459,22.981c3.897,1.331,8.462,1.117,11.679,3.688
					c5.891,4.709,2.625,14.451-2.64,19.851c-7.483,7.674-17.691,12.073-25.888,18.98c-11.511,9.701-18.429,23.773-28.899,34.59
					c-11.934,12.329-28.507,20.057-45.623,21.273c-17.116,1.216-34.615-4.092-48.171-14.611
					c-8.665-6.723-15.632-15.364-22.146-24.187c-2.324-3.148-4.664-6.473-5.35-10.325c-0.605-3.399,0.141-6.881,0.964-10.234
					c2.489-10.137,5.719-20.092,9.656-29.759c2.234-5.485,4.725-10.987,5.339-16.878c0.64-6.137-0.799-12.273-2.014-18.322
					c-3.33-16.582-4.687-35.057,4.568-49.213C223.012,102.158,272.18,88.793,293.326,113.355z"/>
				<path stroke="currentColor" style="fill:none;stroke-miterlimit:10;" d="M225.928,148.462c10.639-18.758,45.736-28.799,62.189-12.323
					c4.032,4.038,6.594,9.199,10.286,13.595c3.725,4.403,9.325,8.194,15.006,7.413c1.587-0.218,3.152-0.801,4.739-0.515
					c2.94,0.53,4.893,3.466,5.945,6.273c2.143,5.715,2.052,11.945,2.083,18.155c0.008,1.362,0.026,2.7,0.069,4.014
					c0.253,7.785,1.941,15.363,6.872,18.055c2.181,1.19,4.655,1.469,6.542,3.457c3.443,3.628,1.349,10.095-2.316,13.958
					c-5.211,5.493-12.184,8.839-17.787,13.869c-3.711,3.33-6.729,7.312-9.631,11.406c-3.253,4.591-6.366,9.331-10.152,13.46
					c-8.167,8.905-19.497,14.608-31.349,16.075c-12.092,1.497-24.946-1.466-34.891-8.989c-6.489-4.883-11.458-11.515-15.831-18.213
					c-1.56-2.376-3.103-4.868-3.53-7.711c-0.377-2.509,0.157-5.072,0.742-7.549c0.709-3.001,1.498-5.982,2.349-8.94
					c1.273-4.427,2.682-8.799,4.236-13.101c1.47-4.073,3.089-8.156,3.442-12.498c0.368-4.523-0.664-9.046-1.551-13.511
					C220.957,172.599,219.875,159.133,225.928,148.462z"/>
				<path stroke="currentColor" style="fill:none;stroke-miterlimit:10;" d="M244.794,170.372c5.292-13.174,26.322-19.834,38.114-11.449
					c2.844,2.022,4.924,4.733,7.559,7.095c2.679,2.403,6.269,4.546,9.787,4.517c0.998-0.008,1.982-0.205,2.953,0.078
					c2.104,0.612,3.605,2.627,4.584,4.6c1.996,4.02,2.502,8.599,2.565,13.218c0.015,1.04,0.017,2.038,0.005,2.997
					c-0.08,6.161-0.731,10.726,0.285,13.128c0.433,1.024,1.162,1.545,1.405,3.225c1.526,2.004,0.073,5.74-1.992,8.065
					c-2.939,3.311-6.676,5.605-9.686,8.757c-1.993,2.084-3.622,4.502-5.186,6.97c-1.756,2.774-3.44,5.629-5.48,8.171
					c-4.399,5.48-10.504,9.199-17.076,10.878c-7.091,1.811-15.264,1.14-21.612-3.368c-4.303-3.056-7.269-7.673-9.516-12.24
					c-0.79-1.606-1.541-3.263-1.71-5.097c-0.149-1.618,0.172-3.262,0.521-4.865c0.421-1.94,0.884-3.871,1.352-5.791
					c0.701-2.875,1.415-5.722,2.161-8.532c0.707-2.66,1.452-5.325,1.545-8.119c0.097-2.91-0.529-5.82-1.089-8.701
					C242.75,186.014,241.919,177.527,244.794,170.372z"/>
				<path stroke="currentColor" style="fill:none;stroke-miterlimit:10;" d="M263.659,192.281c0.324,7.487,3.136,14.835,2.409,22.293
					c-0.238,2.44-0.854,4.856-0.764,7.306c0.09,2.45,1.064,5.064,3.201,6.266c2.723,1.532,6.332,0.145,8.332-2.254
					c2-2.4,2.798-5.547,3.611-8.563c0.813-3.016,1.778-6.151,3.995-8.351c4.912-4.874,10.352-4.971,10.094-13.174
					c-0.142-4.512-2.526-8.802-6.271-11.207C280.454,179.58,263.147,180.442,263.659,192.281z"/>
			</g>
			<g>
				<path stroke="currentColor" style="fill:none;stroke-miterlimit:10;" d="M166.069,319.588c-6.059,8.503-11.42,17.503-16.013,26.88
					c-1.8,3.674-3.515,7.549-3.543,11.64c-0.066,9.592,8.707,16.581,16.617,22.007c13.387,9.184,26.775,18.368,40.162,27.552
					c7.063,4.845,14.507,9.838,23.02,10.791c8.784,0.983,18.213-2.405,26.243,1.288c3.4,1.564,6.151,4.26,9.419,6.085
					c11.294,6.306,25.471,0.913,36.444-5.935c4.539-2.832,9.394-6.732,9.494-12.081c0.108-5.789-5.481-10.044-10.908-12.062
					c-5.427-2.018-11.503-2.983-15.832-6.828c-8.194-7.277-6.008-20.252-7.657-31.086c-2.128-13.978-11.704-25.941-23.248-34.105
					c-11.973-8.468-29.012-18.329-42.912-23.293C190.485,294.418,175.318,306.608,166.069,319.588z"/>
				<path stroke="currentColor" style="fill:none;stroke-miterlimit:10;" d="M182.373,338.438c-2.847,4.997-5.651,10.013-7.681,15.253
					c-0.796,2.053-1.583,4.197-1.374,6.419c0.526,5.61,6.196,9.322,11.183,12.313c8.389,5.048,16.715,10.329,24.92,15.815
					c4.329,2.894,8.805,5.965,13.792,6.977c4.966,1.007,10.255-0.223,14.946,1.946c1.997,0.923,3.685,2.371,5.638,3.345
					c6.75,3.364,15.034,0.418,21.48-3.609c2.974-1.86,5.915-4.347,6.348-7.617c0.476-3.598-2.078-6.52-4.753-8.338
					c-2.663-1.81-5.819-3.109-8.236-5.833c-4.525-5.1-4.275-12.987-6.179-19.493c-1.303-4.451-3.77-8.451-6.865-11.806
					c-2.789-3.024-6.251-5.702-10.026-7.877c-8.176-4.725-19.272-9.802-28.326-11.817
					C196.48,321.719,187.533,329.38,182.373,338.438z"/>
				<path stroke="currentColor" style="fill:none;stroke-miterlimit:10;" d="M198.676,357.288c-0.086,1.72,0.298,3.54,1.446,4.824
					c1.425,1.595,3.684,2.063,5.75,2.618c5.181,1.392,10.066,3.875,14.244,7.241c1.167,0.94,2.297,1.959,3.65,2.603
					c2.638,1.256,5.899,0.877,8.372-0.678c9.597-6.037,2.558-20.634-5.787-24.076C217.862,346.317,199.331,344.263,198.676,357.288z
					"/>
			</g>
			<path stroke="currentColor" style="fill:none;stroke-miterlimit:10;" d="M-12.153,372.077c10.492,13.245,30.531,12.734,47.161,9.742
				c16.63-2.993,35.277-6.861,49.241,2.653c10.757,7.329,15.653,20.82,25.476,29.361c10.327,8.978,24.74,11.412,36.568,18.293
				c19.141,11.136,32.939,34.34,55.076,34.896c6.313,0.159,12.584-1.684,18.88-1.191c10.034,0.786,18.574,7.284,27.928,10.998
				c20.861,8.284,44.782,2.258,64.886-7.726c20.104-9.984,38.263-23.786,59.056-32.242s46.065-10.742,64.565,1.97
				c29.964,20.591,27,67.125,50.542,94.829"/>
			<path stroke="currentColor" style="fill:none;stroke-miterlimit:10;" d="M276.37,509.761c21.4-14.529,43.537-27.973,66.296-40.264
				c13.155-7.104,26.798-13.917,41.566-16.251c14.768-2.334,31.03,0.42,42.057,10.517c8.639,7.91,13.127,19.252,17.34,30.181
				c2.163,5.612,4.327,11.223,6.49,16.835"/>
			<path stroke="currentColor" style="fill:none;stroke-miterlimit:10;" d="M317.79,510.832c9.321-6.759,18.642-13.517,27.964-20.275
				c7.147-5.182,14.387-10.416,22.581-13.702c8.194-3.286,17.573-4.473,25.846-1.392c13.571,5.054,20.628,19.655,26.365,32.951"/>
			<g>
				<path stroke="currentColor" style="fill:none;stroke-miterlimit:10;" d="M-14.867,400.744c13.109,5.932,28.307,2.783,42.425,0.008
					c14.119-2.776,29.812-4.805,41.998,2.845c4.247,2.665,7.743,6.34,11.379,9.792c7.511,7.13,15.765,13.425,24.001,19.704
					c5.16,3.934,10.377,7.902,16.291,10.572c3.63,1.639,7.477,2.766,11.084,4.454c15.246,7.134,24.829,23.525,40.454,29.786
					c15.04,6.027,33.389,1.665,47.126,10.256c9.56,5.979,14.7,17.033,17.653,27.915"/>
				<path stroke="currentColor" style="fill:none;stroke-miterlimit:10;" d="M-16.358,415.677c11.447,4.861,24.64,2.229,36.934-0.056
					c7.512-1.396,15.513-2.546,23.037-1.764c4.79,0.498,9.389,1.782,13.545,4.294c3.721,2.248,6.816,5.342,10.027,8.255
					c6.636,6.019,13.884,11.366,21.096,16.737c4.524,3.367,9.087,6.779,14.218,9.128c3.15,1.442,6.475,2.464,9.594,3.962
					c4.652,2.233,8.704,5.445,12.58,8.927c7.103,6.38,13.602,13.649,22.219,17.378c4.245,1.837,8.794,2.723,13.418,3.358
					c9.342,1.281,18.99,1.536,26.957,6.575c8.288,5.243,12.933,14.666,15.78,23.883"/>
				<path stroke="currentColor" style="fill:none;stroke-miterlimit:10;" d="M-17.848,430.609c9.784,3.791,20.974,1.676,31.444-0.12
					c6.401-1.097,13.193-1.981,19.601-1.313c4.073,0.424,7.996,1.482,11.566,3.527c3.194,1.831,5.889,4.343,8.674,6.718
					c5.761,4.907,12.004,9.306,18.191,13.769c3.889,2.801,7.798,5.656,12.145,7.683c2.669,1.244,5.472,2.162,8.104,3.469
					c3.924,1.949,7.352,4.701,10.62,7.694c5.984,5.478,11.4,11.724,18.525,15.129c3.509,1.678,7.266,2.594,11.097,3.299
					c7.738,1.422,15.783,1.98,22.527,6.311c7.016,4.507,11.166,12.299,13.908,19.851"/>
				<path stroke="currentColor" style="fill:none;stroke-miterlimit:10;" d="M-19.338,445.541c8.121,2.721,17.307,1.122,25.953-0.184
					c5.29-0.797,10.873-1.415,16.165-0.862c3.356,0.351,6.603,1.181,9.586,2.761c2.668,1.414,4.962,3.345,7.322,5.181
					c4.885,3.796,10.123,7.247,15.286,10.801c3.253,2.235,6.508,4.533,10.072,6.238c2.188,1.047,4.47,1.86,6.615,2.977
					c3.196,1.664,6,3.957,8.66,6.461c4.865,4.575,9.199,9.798,14.83,12.88c2.774,1.52,5.738,2.465,8.776,3.24
					c6.135,1.561,12.576,2.424,18.096,6.048c5.745,3.771,9.4,9.931,12.035,15.819"/>
				<path stroke="currentColor" style="fill:none;stroke-miterlimit:10;" d="M-20.828,460.473c6.459,1.651,13.641,0.568,20.462-0.249
					c4.179-0.498,8.553-0.849,12.729-0.411c2.639,0.277,5.211,0.881,7.606,1.994c2.142,0.997,4.036,2.346,5.969,3.644
					c4.01,2.684,8.242,5.187,12.38,7.834c2.618,1.668,5.219,3.409,7.999,4.793c1.708,0.85,3.468,1.558,5.125,2.485
					c2.468,1.38,4.648,3.214,6.7,5.228c3.745,3.673,6.997,7.872,11.135,10.631c2.039,1.361,4.21,2.336,6.454,3.181
					c4.531,1.702,9.368,2.868,13.666,5.784c4.473,3.035,7.633,7.564,10.162,11.787"/>
				<path stroke="currentColor" style="fill:none;stroke-miterlimit:10;" d="M-22.319,475.405c4.796,0.581,9.975,0.014,14.971-0.313
					c3.068-0.199,6.232-0.284,9.293,0.04c1.922,0.203,3.818,0.58,5.627,1.228c1.616,0.579,3.109,1.348,4.617,2.107
					c3.135,1.573,6.361,3.128,9.475,4.866c1.982,1.102,3.929,2.286,5.926,3.348c1.227,0.653,2.466,1.256,3.635,1.992
					c1.74,1.095,3.296,2.47,4.74,3.995c2.626,2.771,4.795,5.947,7.44,8.383c1.304,1.202,2.681,2.207,4.133,3.122
					c2.928,1.842,6.161,3.312,9.236,5.52c3.201,2.299,5.866,5.197,8.289,7.755"/>
				<path stroke="currentColor" style="fill:none;stroke-miterlimit:10;" d="M-23.809,490.337c5.066-0.791,10.239-0.435,15.337,0.115
					c8.187,0.883,17.09,2.685,22.258,9.095c2.251,2.792,3.565,6.215,5.558,9.197c2.704,4.046,6.681,7.229,11.222,8.98"/>
			</g>
			<g>
				<path stroke="currentColor" style="fill:none;stroke-miterlimit:10;" d="M331.72,18.789c-3.824,5.507-5.249,12.482-9.496,17.669
					c-5.294,6.465-13.98,9.021-20.402,14.367c-1.267,1.055-2.474,2.26-3.118,3.777c-1.584,3.729,0.74,8.069,3.871,10.64
					c7.525,6.18,19.319,6.08,25.529,13.58c2.682,3.238,3.889,7.46,6.336,10.879c8.332,11.637,26.232,9.487,38.888,16.17
					c6.766,3.573,12.019,9.91,14.277,17.221c3.594,11.638,0.569,26.523,9.96,34.279c2.614,2.159,5.877,3.38,9.157,4.238
					c10.715,2.804,22.334,2.03,32.583-2.17c6.53-2.676,12.429-6.655,18.334-10.52c11.452-7.496,23.541-14.824,37.076-16.866
					c18.044-2.722,37.572,4.117,54.191-3.423c15.426-6.998,23.612-26.803,17.63-42.65c-4.076-10.798-13.515-19.127-16.55-30.263
					c-2.974-10.91,0.77-22.554,6.038-32.559c5.268-10.006,12.109-19.242,16.036-29.846c0.678-1.831,1.261-3.893,0.5-5.692
					c-0.458-1.083-1.348-1.917-2.226-2.7c-20.366-18.183-47.467-27.953-74.711-29.723c-27.244-1.771-54.625,4.101-79.957,14.282
					c-9.098,3.656-17.673,7.997-24.14,15.519c-5.228,6.08-10.114,10.589-17.691,13.773C359.895,4.628,341.091,5.294,331.72,18.789z"
					/>
				<path stroke="currentColor" style="fill:none;stroke-miterlimit:10;" d="M424.238-16.574c-7.138,2.869-13.912,6.238-19.121,11.988
					c-4.183,4.64-8.118,8.099-14.073,10.567c-11.017,4.557-25.694,5.23-33.256,15.569c-3.102,4.225-4.397,9.561-7.797,13.567
					c-4.25,5-11.025,7.087-16.073,11.294c-0.996,0.83-1.95,1.772-2.472,2.953c-1.258,2.848,0.44,6.169,2.736,8.161
					c5.518,4.79,14.26,4.891,18.847,10.702c1.98,2.509,2.861,5.757,4.679,8.403c6.188,9.008,19.63,7.685,29.247,12.958
					c5.447,3.021,9.901,7.834,12.111,13.255c1.104,2.717,1.716,5.646,2.266,8.562c1.182,6.351,2.173,12.664,7.517,16.651
					c2.181,1.62,4.844,2.569,7.513,3.296c8.481,2.28,17.497,2.055,25.451-0.692c5.062-1.76,9.637-4.48,14.228-7.125
					c5.863-3.374,11.953-6.712,18.496-8.984c3.399-1.179,6.919-2.079,10.576-2.544c14.264-1.813,29.768,3.06,42.741-3.154
					c11.888-5.693,18.195-21.035,13.898-33.419c-2.927-8.44-9.992-14.986-11.893-23.64c-1.906-8.675,1.599-17.748,5.965-25.596
					c4.421-7.892,9.756-15.273,12.523-24.023c0.466-1.473,0.879-3.115,0.264-4.569c-0.368-0.87-1.062-1.554-1.749-2.202
					c-15.483-14.52-36.276-22.647-57.555-24.083c-0.514-0.035-1.029-0.067-1.544-0.095
					C466.108-29.941,444.358-24.663,424.238-16.574z"/>
				<path stroke="currentColor" style="fill:none;stroke-miterlimit:10;" d="M432.811-2.629c-5.178,2.082-10.164,4.467-14.101,8.457
					c-3.148,3.19-6.122,5.61-10.455,7.361c-8.097,3.258-18.63,3.95-24.399,11.121c-2.373,2.95-3.545,6.64-6.098,9.465
					c-3.207,3.535-8.071,5.154-11.744,8.222c-0.725,0.605-1.426,1.284-1.826,2.129c-0.931,1.967,0.14,4.268,1.601,5.682
					c3.511,3.4,9.202,3.702,12.165,7.823c1.279,1.779,1.834,4.054,3.022,5.928c4.044,6.38,13.028,5.883,19.606,9.747
					c4.128,2.469,7.783,5.757,9.945,9.288c1.077,1.77,1.832,3.64,2.511,5.491c1.478,4.027,2.835,8.007,7.094,10.655
					c1.744,1.085,3.809,1.766,5.869,2.354c6.24,1.781,12.663,2.097,18.319,0.786c3.596-0.833,6.844-2.304,10.123-3.73
					c4.189-1.814,8.555-3.63,13.322-4.845c2.477-0.63,5.06-1.113,7.746-1.345c10.484-0.903,21.963,2.009,31.292-2.885
					c8.35-4.381,12.777-15.267,10.166-24.187c-1.778-6.083-6.449-10.869-7.237-17.018c-0.829-6.47,2.409-12.955,5.893-18.632
					c3.553-5.791,7.415-11.288,9.011-18.201c0.256-1.111,0.498-2.336,0.028-3.447c-0.277-0.656-0.773-1.193-1.271-1.704
					c-11.041-11.331-26.369-17.81-42.34-18.582c-0.382-0.019-0.764-0.036-1.146-0.049C463.839-13.31,447.719-8.625,432.811-2.629z"
					/>
				<path stroke="currentColor" style="fill:none;stroke-miterlimit:10;" d="M441.385,11.317c-3.218,1.296-6.405,2.703-9.082,4.926
					c-2.104,1.747-4.126,3.12-6.837,4.155c-5.176,1.959-11.58,2.663-15.542,6.673c-1.651,1.67-2.693,3.719-4.399,5.363
					c-2.164,2.069-5.117,3.221-7.415,5.149c-0.453,0.38-0.9,0.795-1.179,1.304c-0.598,1.088-0.16,2.368,0.466,3.203
					c1.504,2.01,4.143,2.513,5.483,4.944c0.578,1.05,0.806,2.35,1.364,3.452c1.9,3.751,6.426,4.081,9.966,6.535
					c2.809,1.917,5.67,3.675,7.779,5.322c1.051,0.821,1.941,1.632,2.757,2.42c1.76,1.7,3.505,3.341,6.671,4.659
					c1.311,0.546,2.775,0.956,4.225,1.412c4.004,1.259,7.821,2.128,11.187,2.264c2.124,0.086,4.052-0.129,6.017-0.335
					c2.515-0.255,5.158-0.548,8.147-0.706c1.556-0.08,3.2-0.147,4.916-0.146c6.703,0.006,14.162,0.979,19.843-2.616
					c4.817-3.048,7.36-9.499,6.435-14.955c-0.628-3.725-2.826-6.804-2.58-10.395c0.297-4.33,3.237-8.152,5.82-11.669
					c2.704-3.681,5.116-7.273,5.498-12.379c0.056-0.745,0.116-1.558-0.208-2.325c-0.187-0.443-0.486-0.83-0.794-1.206
					c-6.633-8.101-16.462-12.947-27.126-13.081c-0.249-0.003-0.498-0.005-0.747-0.004C461.57,3.322,451.08,7.413,441.385,11.317z"/>
				<path stroke="currentColor" style="fill:none;stroke-miterlimit:10;" d="M429.672,33.648c-1.893,1.798-2.968,4.736-1.837,7.089
					c2.226,2.039,5.722,1.566,8.615,0.703c2.893-0.863,6.025-1.986,8.829-0.866c4.268,1.706,5.247,7.498,8.94,10.235
					c3.12,2.312,8.016,1.707,10.479-1.295c2.261-2.755,2.421-6.824,4.78-9.496c4.298-4.868,10.768-5.151,6.972-13.173
					c-2.285-4.829-6.555-8.136-11.912-7.58c-5.007,0.52-9.991,4.142-14.58,5.997C443.725,27.782,434.676,28.896,429.672,33.648z"/>
			</g>
			<path stroke="currentColor" style="fill:none;stroke-miterlimit:10;" d="M756.913,89.247c-10.416-4.726-21.156-8.738-32.12-11.999
				c-5.802-1.726-13.954-2.147-15.988,3.554c-0.745,2.088-0.316,4.415-0.776,6.583c-1.207,5.684-7.804,8.321-13.57,9.036
				c-1.39,0.173-2.85,0.311-4.02,1.082c-2.039,1.344-2.511,4.087-2.733,6.519c-0.82,8.98-0.898,18.514-5.659,26.172
				c-7.199,11.579-22.495,14.878-36.124,15.22c-14.685,0.369-29.423-1.454-43.576-5.389c-10.14-2.82-20.645-6.755-30.896-4.368
				c-5.476,1.275-10.386,4.278-15.721,6.053c-8.422,2.802-17.509,2.439-26.367,2.985c-26.645,1.642-52.68,12.027-73.139,29.176
				c-6.822,5.718-13.181,12.382-16.534,20.628c-3.98,9.788-3.324,20.97-0.282,31.089c3.043,10.118,8.319,19.396,13.553,28.575
				c3.697,6.484,8.833,13.832,16.295,13.659c2.941-0.068,5.934-1.368,8.738-0.481c4.21,1.333,5.483,6.562,8.311,9.952
				c4.583,5.493,13.279,5.649,19.771,2.645c6.492-3.004,11.482-8.416,16.876-13.115c28.701-25.004,69.443-30.156,107.506-30.468
				c9.523-0.078,19.212,0.102,28.288,2.987c5.547,1.763,10.751,4.505,16.331,6.16c9.614,2.851,19.845,2.351,29.864,2.777
				c22.128,0.941,44.044,6.586,63.873,16.45"/>
			<path stroke="currentColor" style="fill:none;stroke-miterlimit:10;" d="M753.68,103.877c-4.794-4.135-9.811-8.392-15.926-10.033
				c-6.115-1.641-13.653,0.175-16.598,5.779c-0.6,1.142-1.023,2.437-1.995,3.285c-1.457,1.271-3.612,1.128-5.542,1.249
				c-6.616,0.414-12.752,5.159-14.819,11.457c-2.597,7.914,0.788,17.361-3.555,24.468c-2.68,4.385-7.681,6.722-12.5,8.509
				c-17.083,6.335-35.584,8.813-53.733,7.195c-17.208-1.534-34.499-6.679-51.478-3.491c-6.216,1.167-12.175,3.428-18.343,4.825
				c-7.679,1.74-15.593,2.125-23.39,3.223c-14.499,2.042-28.643,6.585-41.62,13.368c-11.785,6.16-22.936,14.534-29.285,26.218
				c-6.349,11.684-6.936,27.153,1.173,37.692c1.312,1.706,2.922,3.319,4.985,3.929c2.782,0.822,5.802-0.333,8.658,0.177
				c6.808,1.215,9.518,10.88,16.329,12.077c3.118,0.548,6.206-0.895,9.028-2.329c20.591-10.464,40.75-22.744,63.362-27.451
				c10.955-2.281,22.199-2.711,33.38-3.135c19.6-0.742,39.543-1.448,58.5,3.584c6.403,1.7,12.636,4.042,19.117,5.414
				c13.656,2.89,27.84,1.365,41.734,2.704c12.835,1.237,25.427,4.951,36.878,10.877"/>
			<path stroke="currentColor" style="fill:none;stroke-miterlimit:10;" d="M505.965,191.034c-3.978,2.159-8.017,4.596-10.508,8.375
				c-2.491,3.779-2.959,9.264,0.096,12.603c1.638,1.789,4.127,2.852,5.165,5.044c0.824,1.741,0.532,3.822,1.191,5.632
				c1.047,2.878,4.338,4.436,7.4,4.409c3.062-0.027,5.959-1.304,8.742-2.581c16.82-7.714,33.615-16.372,51.931-19.002
				c15.81-2.27,32.04,0.081,47.802-2.498c5.777-0.945,12.405-3.486,13.726-9.188c3.585-15.472-20.055-26.775-32.384-26.056
				c-19.741,1.151-39.661,3.237-58.659,8.933C528.519,180.288,516.931,185.084,505.965,191.034z"/>
			<path stroke="currentColor" style="fill:none;stroke-miterlimit:10;" d="M758.414,120.496c-4.431,0.633-8.586-1.962-12.56-4.022
				c-3.974-2.06-9.006-3.608-12.725-1.116c-2.404,1.611-3.613,4.547-5.895,6.328c-1.842,1.438-4.28,2.039-5.927,3.696
				c-2.204,2.218-2.407,5.651-2.943,8.731c-1.29,7.412-5.331,14.312-11.163,19.064c-6.228,5.074-14.098,7.571-21.72,10.109
				c-7.622,2.539-15.441,5.374-21.255,10.917c-5.814,5.543-9.103,14.538-5.733,21.83c3.332,7.21,11.743,10.467,19.539,11.986
				c13.627,2.656,27.672,2.111,41.447,3.841c13.775,1.73,28.014,6.22,37.149,16.675"/>
			<path stroke="currentColor" style="fill:none;stroke-miterlimit:10;" d="M756.56,146.261c-1.719-2.86-5.362-4.309-8.648-3.724
				c-3.286,0.585-6.101,3.02-7.473,6.062c-0.832,1.844-1.175,3.874-1.971,5.734c-2.894,6.764-10.716,9.603-17.513,12.419
				c-5.584,2.314-10.985,5.072-16.133,8.24c-4.036,2.483-8.336,5.958-8.389,10.696c-0.038,3.4,2.294,6.496,5.236,8.202
				c2.942,1.706,6.411,2.239,9.802,2.478c8.249,0.582,16.615-0.38,24.757,1.062c8.071,1.429,15.702,5.259,21.672,10.875"/>
			<path stroke="currentColor" style="fill:none;stroke-miterlimit:10;" d="M753.746,167.317c-4.608,1.454-9.216,2.909-13.824,4.364
				c-1.618,0.51-3.275,1.042-4.603,2.098c-2.084,1.657-3.057,4.426-3.056,7.089c0,1.662,0.385,3.41,1.521,4.623
				c2.405,2.566,6.571,1.563,10.018,0.868c6.619-1.335,14.581-0.181,18.236,5.497"/>
			<path stroke="currentColor" style="fill:none;stroke-miterlimit:10;" d="M540.714,191.349c-1.222,0.553-2.494,1.182-3.234,2.301
				c-0.74,1.119-0.688,2.872,0.454,3.577c0.837,0.516,1.912,0.313,2.87,0.092c11.683-2.692,23.456-5.589,35.482-6.118
				c3.789-0.167,18.254,2.906,14.556-2.809c-2.795-4.319-13.882-5.447-18.361-5.341
				C561.786,183.305,550.375,186.979,540.714,191.349z"/>
			<g>
				<path stroke="currentColor" style="fill:none;stroke-miterlimit:10;" d="M383.322,267.51c-13.743,12.191-21.512,30.234-36.013,41.511
					c-7.619,5.925-17.606,10.775-19.842,20.164c-1.212,5.089,0.256,10.422,2.164,15.293c1.413,3.606,3.089,7.144,5.428,10.232
					c10.599,13.995,32.29,16.046,42.298,30.47c3.486,5.025,5.296,11.267,9.757,15.451c4.38,4.107,10.647,5.547,16.645,5.809
					c5.998,0.262,12.019-0.486,18.003-0.006c14.925,1.197,29.594,9.939,44.057,6.064c8.797-2.357,15.752-9.071,21.368-16.24
					c5.045-6.44,9.467-13.761,10.364-21.892c1.709-15.494-9.555-29.844-9.526-45.432c0.008-4.58,1.001-9.11,1.109-13.689
					c0.108-4.579-0.828-9.475-4.027-12.754c-2.908-2.981-7.427-4.374-9.455-8.011c-0.571-1.025-0.907-2.177-1.571-3.144
					c-3.081-4.484-9.947-2.192-15.376-2.543c-18.697-1.208-17.334-26.263-30.284-34.361
					C415.555,246.387,392.867,259.043,383.322,267.51z"/>
				<path stroke="currentColor" style="fill:none;stroke-miterlimit:10;" d="M391.903,288.872c-3.323,3.07-6.067,6.612-8.698,10.285
					c-4.734,6.619-9.195,13.576-15.569,18.654c-5.201,4.136-12.015,7.546-13.668,13.98c-0.894,3.484-0.002,7.132,1.184,10.471
					c0.878,2.473,1.933,4.901,3.432,7.029c6.773,9.673,21.366,11.173,27.73,21.448c1.684,2.718,3.213,5.733,5.168,8.076
					c1.022,1.231,2.135,2.318,3.452,3.206c1.24,0.837,2.612,1.449,4.064,1.9c2.95,0.909,6.265,1.151,9.525,1.279
					c4.301,0.18,8.607-0.249,12.884,0.163c7.456,0.72,14.818,3.969,22.136,4.951c3.15,0.422,6.292,0.423,9.42-0.365
					c6.325-1.591,11.418-6.193,15.565-11.196c3.773-4.521,6.966-9.651,7.682-15.331c1.413-10.929-6.544-21.142-7.083-32.064
					c-0.157-3.184,0.356-6.328,0.261-9.493c-0.098-3.168-0.897-6.537-3.202-8.814c-2.113-2.08-5.297-3.088-6.811-5.576
					c-0.426-0.701-0.692-1.488-1.182-2.146c-2.297-3.087-7.159-1.656-11.066-1.98c-13.226-1.098-13.174-18.044-22.641-23.57
					c-8.014-4.636-20.652,0.639-28.681,6.058C394.309,286.85,392.975,287.881,391.903,288.872z"/>
				<path stroke="currentColor" style="fill:none;stroke-miterlimit:10;" d="M400.483,310.234c-1.744,1.772-3.077,3.768-4.376,5.84
					c-2.336,3.75-4.718,7.62-8.145,10.526c-2.783,2.347-6.424,4.318-7.494,7.797c-0.575,1.88-0.261,3.841,0.205,5.648
					c0.343,1.34,0.783,2.654,1.436,3.827c2.975,5.336,10.22,6.488,13.163,12.427c1.077,2.174,2.579,4.35,4.423,5.624
					c0.961,0.664,1.963,1.154,3.061,1.489c1.031,0.317,2.122,0.476,3.243,0.547c2.291,0.145,4.785-0.085,7.29,0.002
					c2.605,0.091,5.195-0.013,7.765,0.333c4.485,0.604,8.905,2.583,13.346,3.22c1.904,0.272,3.811,0.295,5.71-0.113
					c3.853-0.826,7.07-3.327,9.761-6.152c2.489-2.613,4.449-5.544,5-8.771c1.087-6.37-3.522-12.431-4.64-18.696
					c-0.319-1.784-0.289-3.545-0.587-5.298c-0.303-1.757-0.962-3.602-2.376-4.875c-1.314-1.183-3.168-1.802-4.166-3.141
					c-0.282-0.377-0.479-0.798-0.792-1.147c-1.517-1.69-4.371-1.117-6.755-1.418c-7.754-0.977-8.999-9.856-14.998-12.779
					c-5.186-2.527-12.682,0.152-17.689,3.271C401.949,308.972,401.118,309.589,400.483,310.234z"/>
				<path stroke="currentColor" style="fill:none;stroke-miterlimit:10;" d="M409.926,330.956c-0.338,0.139-0.689,0.319-0.863,0.641
					c-0.226,0.416-0.088,0.923-0.055,1.395c0.245,3.466-5.164,5.414-4.78,8.868c0.193,1.739,1.94,2.976,3.678,3.173
					c1.738,0.196,3.459-0.405,5.091-1.034c1.632-0.629,3.305-1.307,5.054-1.274c2.5,0.047,4.744,1.533,7.203,1.991
					c2.017,0.376,4.162,0.027,5.956-0.969c6.42-3.564-0.663-8.996-4.79-10.43C421.667,331.666,414.773,328.958,409.926,330.956z"/>
			</g>
			<g>
				<path stroke="currentColor" style="fill:none;stroke-miterlimit:10;" d="M498.545,514.011c-10.597-17.146-19.266-35.482-25.791-54.552
					c-1.813-5.299-3.452-11.169-1.389-16.376c3.318-8.377,14.014-10.601,20.783-16.548c7.473-6.565,9.931-17.598,17.679-23.836
					c6.003-4.833,14.24-5.944,21.924-5.346c7.683,0.598,15.177,2.702,22.837,3.546c12.178,1.342,24.492-0.522,36.727,0.119
					c12.234,0.641,25.259,4.422,32.596,14.234c3.657,4.891,5.574,10.849,8.698,16.097c7.109,11.942,20.329,19.51,34.06,21.652
					c13.731,2.143,27.888-0.698,40.731-6.007c8.89-3.675,17.367-8.544,26.727-10.762c9.36-2.217,20.214-1.27,27.104,5.442
					c2.193,2.136,7.034,4.348,9.08,6.625c9.496,10.565,15.149,24.152,18.058,38.056c2.91,13.904,3.226,28.212,3.127,42.417"/>
				<path stroke="currentColor" style="fill:none;stroke-miterlimit:10;" d="M524.783,512.671c-8.355-13.209-15.167-27.431-20.219-42.244
					c-1.404-4.116-2.664-8.664-1.137-12.716c2.458-6.519,10.515-8.39,15.601-13.122c5.718-5.321,7.745-14.046,13.866-19.04
					c4.743-3.871,11.216-4.893,17.303-4.545c2.436,0.139,4.855,0.473,7.27,0.872c3.617,0.597,7.219,1.334,10.864,1.75
					c9.662,1.102,19.416-0.073,29.129,0.482c9.624,0.543,19.838,3.336,25.784,10.611c2.964,3.627,4.622,8.044,7.185,11.926
					c4.057,6.146,10.331,10.699,17.411,13.424c3.1,1.192,6.359,2.036,9.655,2.511c10.818,1.564,21.973-0.521,32.063-4.317
					c6.998-2.621,13.626-6.167,20.872-7.425c7.34-1.275,15.567,0.115,20.713,5.79c1.66,1.831,5.258,3.757,6.829,5.679
					c7.06,8.641,11.546,19.377,13.972,30.392c2.426,11.016,3.003,22.294,3.352,33.423"/>
				<path stroke="currentColor" style="fill:none;stroke-miterlimit:10;" d="M551.021,511.331c-6.113-9.272-11.068-19.38-14.646-29.936
					c-0.994-2.933-1.878-6.159-0.885-9.055c1.597-4.66,7.014-6.189,10.418-9.697c3.964-4.084,5.558-10.493,10.052-14.245
					c3.483-2.908,8.192-3.842,12.681-3.745c1.797,0.039,3.589,0.227,5.383,0.479c2.684,0.378,5.353,0.893,8.049,1.219
					c7.146,0.862,14.34,0.376,21.532,0.845c7.013,0.444,14.416,2.249,18.973,6.988c2.27,2.363,3.669,5.239,5.672,7.756
					c3.168,3.984,7.815,6.899,12.999,8.63c2.273,0.756,4.659,1.289,7.072,1.589c7.905,0.985,16.059-0.344,23.395-2.626
					c5.106-1.568,9.906-3.777,15.016-4.089c5.346-0.326,10.917,1.514,14.323,6.137c1.127,1.53,3.484,3.158,4.578,4.733
					c4.641,6.682,7.943,14.601,9.885,22.728c1.942,8.127,2.781,16.377,3.577,24.429"/>
				<path stroke="currentColor" style="fill:none;stroke-miterlimit:10;" d="M577.26,509.991c-3.871-5.334-6.969-11.328-9.074-17.629
					c-0.585-1.75-1.091-3.653-0.632-5.395c0.737-2.801,3.501-4.011,5.236-6.271c2.204-2.872,3.372-6.94,6.238-9.449
					c2.223-1.946,5.167-2.791,8.06-2.944c1.158-0.061,2.323-0.02,3.495,0.086c1.75,0.159,3.487,0.453,5.234,0.688
					c4.631,0.623,9.264,0.825,13.935,1.207c4.403,0.345,8.995,1.162,12.162,3.365c1.576,1.099,2.717,2.434,4.159,3.585
					c2.28,1.823,5.298,3.1,8.587,3.835c1.447,0.32,2.96,0.543,4.49,0.666c4.991,0.407,10.142-0.185,14.726-0.936
					c3.213-0.526,6.233-1.326,9.161-0.752c3.411,0.668,6.248,2.941,7.932,6.484c0.588,1.238,1.719,2.546,2.327,3.788
					c2.28,4.653,4.34,9.826,5.798,15.064c1.458,5.239,2.558,10.459,3.802,15.435"/>
				<path stroke="currentColor" style="fill:none;stroke-miterlimit:10;" d="M603.498,508.651c-2.809-2.41-4.465-6.254-3.828-9.9
					s3.779-6.834,7.47-7.105c2.981-0.219,5.797,1.32,8.757,1.727c4.087,0.562,8.117-1.046,12.172-1.802
					c4.056-0.756,8.937-0.321,11.27,3.082c1.877,2.737,1.424,6.361,1.618,9.673c0.297,5.081,2.354,10.041,5.739,13.842"/>
			</g>
		</g>
	</g>
</g>
</svg>